<svg width="69" height="52" viewBox="0 0 69 52" fill="none" xmlns="http://www.w3.org/2000/svg">
<path d="M58.4496 4.35492C53.9162 2.29115 49.1304 0.827045 44.2143 0C43.5416 1.19579 42.933 2.42609 42.3909 3.68576C37.1543 2.90113 31.8291 2.90113 26.5926 3.68576C26.0502 2.42622 25.4416 1.19593 24.7691 0C19.85 0.834029 15.061 2.30161 10.5231 4.36571C1.5141 17.6193 -0.928082 30.5438 0.29301 43.2848C5.56888 47.1608 11.4741 50.1086 17.7519 52C19.1655 50.1095 20.4163 48.1039 21.4912 46.0046C19.4497 45.2464 17.4793 44.311 15.6028 43.2092C16.0967 42.8531 16.5797 42.4861 17.0464 42.1299C22.5066 44.6832 28.4661 46.0071 34.4999 46.0071C40.5337 46.0071 46.4932 44.6832 51.9534 42.1299C52.4255 42.5131 52.9085 42.88 53.397 43.2092C51.5168 44.3128 49.5428 45.25 47.4977 46.01C48.5712 48.1084 49.8222 50.1123 51.237 52C57.5202 50.1162 63.4299 47.1698 68.7067 43.2902C70.1395 28.5147 66.2591 15.709 58.4496 4.35492ZM23.0379 35.4492C19.6351 35.4492 16.8239 32.3786 16.8239 28.6011C16.8239 24.8236 19.5374 21.726 23.027 21.726C26.5166 21.726 29.3062 24.8236 29.2465 28.6011C29.1868 32.3786 26.5058 35.4492 23.0379 35.4492ZM45.9619 35.4492C42.5537 35.4492 39.7533 32.3786 39.7533 28.6011C39.7533 24.8236 42.4668 21.726 45.9619 21.726C49.4569 21.726 52.2247 24.8236 52.165 28.6011C52.1053 32.3786 49.4298 35.4492 45.9619 35.4492Z" fill="white"/>
</svg>
