<svg width="69" height="44" viewBox="0 0 69 44" fill="none" xmlns="http://www.w3.org/2000/svg">
<path d="M21.0787 22L0 35.8008V8.19923L21.0787 22ZM47.9213 22L69 35.8008V8.19923L47.9213 22ZM44.8416 24.0223L35.4172 30.1908C35.1395 30.3685 34.8198 30.4615 34.5 30.4615C34.1802 30.4615 33.8605 30.3685 33.5828 30.1908L24.1584 24.0223L1.39683 38.9231L0.0757318 39.7862C0.488049 42.1723 2.55805 44 5.04878 44H63.9512C66.4419 44 68.512 42.1808 68.9243 39.7862L67.5948 38.9231L44.8416 24.0223ZM34.5 26.7469L67.5948 5.07692L68.9243 4.21385C68.512 1.81923 66.4419 0 63.9512 0H5.04878C2.55805 0 0.488049 1.82769 0.0757318 4.21385L1.39683 5.07692L34.5 26.7469Z" fill="#FCFCFC"/>
</svg>
