<svg width="50" height="75" viewBox="0 0 50 75" fill="none" xmlns="http://www.w3.org/2000/svg">
<path d="M13 75C20.176 75 26 69.4 26 62.5V50H13C5.824 50 0 55.6 0 62.5C0 69.4 5.824 75 13 75Z" fill="#0ACF83"/>
<path d="M0 38C0 31.376 5.824 26 13 26H26V50H13C5.824 50 0 44.624 0 38Z" fill="#A259FF"/>
<path d="M0 13C0 5.824 5.824 0 13 0H26V26H13C5.824 26 0 20.176 0 13Z" fill="#F24E1E"/>
<path d="M26 0H38C44.624 0 50 5.824 50 13C50 20.176 44.624 26 38 26H26V0Z" fill="#FF7262"/>
<path d="M50 38C50 44.624 44.624 50 38 50C31.376 50 26 44.624 26 38C26 31.376 31.376 26 38 26C44.624 26 50 31.376 50 38Z" fill="#1ABCFE"/>
</svg>
