<svg width="66" height="74" viewBox="0 0 66 74" fill="none" xmlns="http://www.w3.org/2000/svg">
<path d="M47.4397 73.1883C47.552 73.4899 47.7226 73.7659 47.9417 74L22.7077 73.9749C22.9426 73.7427 23.1264 73.4629 23.2471 73.154C23.3678 72.845 23.4227 72.5138 23.4082 72.1819V63.9508C22.605 64.1113 21.8065 64.2483 21.0034 64.3805C20.1955 64.475 19.3784 64.5222 18.5659 64.5222C16.1611 64.5836 13.789 64.0122 11.6737 62.8646C9.6565 61.5896 8.09689 59.6959 7.21903 57.4575C6.8408 56.6311 6.48125 55.9038 6.14037 55.271C5.8462 54.6335 5.48198 54.0338 5.06173 53.4718C4.65548 52.9004 4.18386 52.3762 3.66088 51.9134C3.09587 51.3514 2.49818 50.8273 1.87714 50.3408L1.73705 50.2417C1.44754 50.0528 1.08799 49.7836 0.65373 49.4341C0.468694 49.3037 0.314242 49.1337 0.201282 48.9362C0.0883234 48.7387 0.0196118 48.5186 0 48.2913C0.00131387 48.1946 0.0279306 48.1 0.077141 48.017C0.126351 47.9341 0.196401 47.8658 0.28017 47.8191C0.464419 47.6892 0.669926 47.5933 0.887203 47.5357C1.13442 47.4722 1.38858 47.4405 1.64366 47.4413C1.83044 47.4177 2.01722 47.3988 2.204 47.3941C2.9772 47.3946 3.7419 47.557 4.45002 47.871C5.16974 48.1554 5.84826 48.5367 6.46724 49.0044C7.09524 49.488 7.67683 50.0303 8.20429 50.6242C8.70428 51.1889 9.16015 51.792 9.56778 52.4281C10.4786 53.9425 11.6711 55.264 13.0792 56.3194C14.5471 57.3115 16.2882 57.8075 18.0522 57.7361C19.9518 57.7261 21.8256 57.2907 23.5389 56.4611C23.6991 55.2541 24.013 54.0731 24.4728 52.9476C24.9561 51.8096 25.676 50.7901 26.5834 49.9583C23.3334 49.6467 20.1395 48.8911 17.0903 47.7105C14.5174 46.6999 12.1827 45.1509 10.2449 43.1581C8.37239 41.0991 6.9622 38.6576 6.11703 35.9989C5.1483 32.7543 4.68823 29.3762 4.75354 25.9875C4.74024 23.6079 5.15642 21.2458 5.98161 19.0172C6.81054 16.7696 8.06696 14.708 9.67985 12.949C9.33431 12.0611 9.08683 11.1403 8.93273 10.2005C8.77397 9.25604 8.69459 8.30212 8.69459 7.3482C8.69926 6.12038 8.82066 4.89728 9.07282 3.6978C9.34933 2.47342 9.70815 1.26956 10.1468 0.0946099C10.3103 0.0297314 10.4848 -0.00234506 10.6604 0.000164329H11.1741C12.2249 0.014178 13.2674 0.190957 14.2653 0.524349C15.3946 0.841953 16.4957 1.25423 17.5573 1.75689C18.6356 2.22843 19.6836 2.76783 20.6952 3.37195C21.5995 3.91913 22.4901 4.48914 23.3661 5.08145C31.2215 2.86726 39.526 2.86726 47.3813 5.08145C48.1658 4.54782 49.053 3.97169 50.0569 3.37195C51.0543 2.77284 52.0849 2.23203 53.1435 1.75217C54.2079 1.26564 55.3048 0.855358 56.4261 0.524349C57.4441 0.189059 58.4994 0.00960911 59.5734 0.000164329H60.087C60.2642 -0.0025975 60.4402 0.0294771 60.6053 0.0946099C61.0378 1.26792 61.3828 2.47236 61.6373 3.6978C61.9174 4.89256 62.0575 6.12038 62.0575 7.3482C62.0575 8.30212 61.9781 9.25604 61.8241 10.2005C61.6703 11.1415 61.4167 12.063 61.0676 12.949C62.6846 14.7056 63.9458 16.7656 64.7799 19.0125C65.6007 21.2418 66.0121 23.604 65.9939 25.9828C66.06 29.3897 65.5871 32.7855 64.5931 36.0414C63.7759 38.7002 62.3611 41.1369 60.4606 43.1534C58.535 45.1584 56.1984 46.7123 53.6151 47.7058C50.5527 48.8645 47.3533 49.6122 44.0987 49.93C45.3154 51.0345 46.1937 52.4684 46.6295 54.0621C47.0896 55.6386 47.327 57.273 47.3346 58.9167C47.3346 61.1646 47.3159 63.3983 47.2879 65.6036V72.2433C47.2759 72.5654 47.3275 72.8866 47.4397 73.1883Z" fill="#DFDFDF"/>
</svg>
