<svg width="70" height="67" viewBox="0 0 70 67" fill="none" xmlns="http://www.w3.org/2000/svg">
<path d="M67.9688 26.9868L67.8745 26.7509L58.5334 2.38382C58.3447 1.91205 58.0144 1.51105 57.5662 1.22798C56.6699 0.685444 55.5376 0.732622 54.712 1.3931C54.311 1.72334 54.0279 2.14794 53.8864 2.6433L47.5883 21.9152H22.089L15.7908 2.6433C15.6493 2.14794 15.3662 1.69975 14.9652 1.3931C14.1396 0.75621 13.0073 0.685444 12.111 1.22798C11.6864 1.51105 11.3326 1.91205 11.1438 2.38382L1.80275 26.7273L1.70839 26.9632C-1.05147 34.1813 1.2838 42.3429 7.46402 46.9899L7.48761 47.0135L7.58196 47.0843L21.8059 57.7227L28.8353 63.0537L33.1284 66.2854C34.1663 67.0638 35.5816 67.0638 36.6195 66.2854L40.9127 63.0537L47.9421 57.7227L62.2368 47.0135L62.284 46.9899C68.3698 42.3429 70.7287 34.2049 67.9688 26.9868Z" fill="#E24329"/>
<path d="M67.9687 26.9868L67.8743 26.7509C63.3217 27.6944 59.0522 29.6051 55.3252 32.3886L34.8267 47.8863C41.8089 53.1701 47.8712 57.7463 47.8712 57.7463L62.1659 47.0371L62.213 47.0135C68.3697 42.3665 70.7285 34.2049 67.9687 26.9868Z" fill="#FC6D26"/>
<path d="M21.7822 57.7464L28.8116 63.0774L33.1048 66.309C34.1427 67.0875 35.558 67.0875 36.5959 66.309L40.889 63.0774L47.9184 57.7464C47.9184 57.7464 41.8326 53.1466 34.8503 47.8863C27.8445 53.1466 21.7822 57.7464 21.7822 57.7464Z" fill="#FCA326"/>
<path d="M14.328 32.3885C10.6246 29.605 6.33143 27.6707 1.77882 26.7272L1.68447 26.9631C-1.0754 34.1812 1.25987 42.3429 7.44009 46.9898L7.46368 47.0134L7.55803 47.0842L21.782 57.7226C21.782 57.7226 27.8442 53.1465 34.8265 47.8626L14.328 32.3885Z" fill="#FC6D26"/>
</svg>
