<svg width="70" height="71" viewBox="0 0 70 71" fill="none" xmlns="http://www.w3.org/2000/svg">
<path d="M70 36.89C70 34.5014 69.7614 32.2048 69.3182 30H34V43.045H54.1818C53.2955 47.2402 50.6364 50.7923 46.6477 53.1809V61.6632L58.48 62C65.5709 56.1206 70 47.1483 70 36.89Z" fill="#4285F4"/>
<path d="M35.5848 71C45.1374 71 53.1462 67.8067 59 62.3326L47.5175 53.3067C44.3655 55.4573 40.345 56.7607 35.5848 56.7607C26.386 56.7607 18.5702 50.4719 15.7719 42H4V51.2539C9.82164 62.9517 21.7544 71 35.5848 71Z" fill="#34A853"/>
<path d="M16 42.0279C15.2727 39.8629 14.843 37.5667 14.843 35.172C14.843 32.7774 15.2727 30.4812 16 28.3161V19L4.17391 19.3441C1.69457 24.199 0 29.333 0 35.172C0 41.011 1.69457 46.1451 4.17391 51L13.3223 44.0617L16 42.0279Z" fill="#FBBC05"/>
<path d="M35.4377 14.2559C40.624 14.2559 45.234 16.0786 48.9156 19.5937L59 9.34119C52.8853 3.5477 44.9459 0 35.4377 0C21.6717 0 9.79453 8.03928 4 19.7565L15.7171 29C18.5023 20.5376 26.2817 14.2559 35.4377 14.2559Z" fill="#EA4335"/>
</svg>
