<svg width="16" height="19" viewBox="0 0 16 19" fill="none" xmlns="http://www.w3.org/2000/svg">
<path d="M6 8L12 4L6 0L6 8Z" fill="white"/>
<path d="M1 4L15 18" stroke="white" stroke-width="2" stroke-linecap="round"/>
<path fill-rule="evenodd" clip-rule="evenodd" d="M0.85742 7.39295C0.308994 8.47677 0 9.70231 0 11C0 15.4182 3.58179 19 8 19C9.29769 19 10.5232 18.691 11.607 18.1426L10.0903 16.6258C9.43941 16.8678 8.73515 17 8 17C4.68628 17 2 14.3137 2 11C2 10.2649 2.13221 9.56059 2.37415 8.90969L0.85742 7.39295ZM13.6258 13.0903C13.8678 12.4394 14 11.7351 14 11C14 7.68628 11.3137 5 8 5C7.26485 5 6.56059 5.13221 5.90969 5.37415L4.39295 3.85742C5.47677 3.30899 6.70231 3 8 3C12.4182 3 16 6.58179 16 11C16 12.2977 15.691 13.5232 15.1426 14.607L13.6258 13.0903Z" fill="white"/>
</svg>
