<svg width="33" height="25" viewBox="0 0 33 25" fill="none" xmlns="http://www.w3.org/2000/svg">
<g clip-path="url(#clip0_309_1343)">
<path d="M27.9542 2.09371C25.7861 1.10151 23.4972 0.397618 21.146 0C20.8243 0.574897 20.5332 1.16639 20.2739 1.772C17.7695 1.39477 15.2227 1.39477 12.7182 1.772C12.4588 1.16645 12.1677 0.574966 11.8461 0C9.49348 0.400976 7.20309 1.10654 5.03277 2.0989C0.724137 8.47084 -0.443866 14.6845 0.140136 20.81C2.66338 22.6735 5.48761 24.0907 8.49007 25C9.16613 24.0911 9.76436 23.1269 10.2784 22.1176C9.30204 21.7531 8.35968 21.3034 7.46222 20.7737C7.69842 20.6024 7.92942 20.426 8.15264 20.2548C10.764 21.4823 13.6142 22.1188 16.5 22.1188C19.3857 22.1188 22.2359 21.4823 24.8473 20.2548C25.0731 20.439 25.3041 20.6154 25.5377 20.7737C24.6385 21.3042 23.6944 21.7548 22.7164 22.1202C23.2298 23.129 23.828 24.0924 24.5047 25C27.5097 24.0943 30.3361 22.6778 32.8598 20.8126C33.545 13.709 31.6892 7.55241 27.9542 2.09371ZM11.0181 17.0429C9.39073 17.0429 8.04622 15.5666 8.04622 13.7505C8.04622 11.9344 9.34401 10.4452 11.013 10.4452C12.6819 10.4452 14.016 11.9344 13.9875 13.7505C13.9589 15.5666 12.6767 17.0429 11.0181 17.0429ZM21.9818 17.0429C20.3518 17.0429 19.0125 15.5666 19.0125 13.7505C19.0125 11.9344 20.3103 10.4452 21.9818 10.4452C23.6534 10.4452 24.9771 11.9344 24.9485 13.7505C24.92 15.5666 23.6404 17.0429 21.9818 17.0429Z" fill="white"/>
</g>
<defs>
<clipPath id="clip0_309_1343">
<rect width="33" height="25" fill="white"/>
</clipPath>
</defs>
</svg>
