<svg width="43" height="43" viewBox="0 0 43 43" fill="white" xmlns="http://www.w3.org/2000/svg">
<path d="M2.82301 15.5361C3.04904 16.311 3.36271 17.0583 3.75942 17.7595L2.62927 19.1848C2.26024 19.6507 2.30176 20.315 2.71691 20.7347L4.66353 22.6814C5.0833 23.1011 5.74755 23.138 6.21344 22.769L7.62958 21.648C8.35841 22.0679 9.13337 22.3953 9.94062 22.626L10.1528 24.448C10.222 25.0385 10.7202 25.4813 11.3106 25.4813H14.0645C14.6549 25.4813 15.1531 25.0384 15.2223 24.448L15.4253 22.6905C16.2925 22.4645 17.1228 22.1278 17.9024 21.6896L19.2724 22.7736C19.7383 23.1426 20.4025 23.1011 20.8223 22.6859L22.7689 20.7393C23.1887 20.3195 23.2256 19.6553 22.8566 19.1894L21.791 17.8378C22.2338 17.0721 22.5798 16.2556 22.8104 15.4023L24.4526 15.2131C25.0431 15.1439 25.4859 14.6458 25.4859 14.0553V11.3014C25.4859 10.711 25.043 10.2128 24.4526 10.1436L22.8335 9.9545C22.612 9.11035 22.28 8.30311 21.8556 7.5466L22.852 6.2873C23.221 5.8214 23.1795 5.15715 22.7643 4.73738L20.8223 2.79538C20.4026 2.37561 19.7383 2.33871 19.2724 2.70774L18.05 3.67643C17.2566 3.21053 16.4078 2.85535 15.5176 2.61548L15.3331 1.03328C15.2639 0.442832 14.7657 0 14.1752 0H11.4214C10.8309 0 10.3328 0.442832 10.2636 1.03328L10.079 2.61548C9.16571 2.85996 8.29388 3.22899 7.48202 3.71333L6.21349 2.70774C5.74759 2.33871 5.08335 2.38022 4.66358 2.79538L2.71696 4.742C2.29719 5.16176 2.26029 5.82601 2.62932 6.29191L3.69027 7.63424C3.26589 8.39998 2.94299 9.21645 2.7308 10.0652L1.03328 10.2589C0.442832 10.3281 0 10.8263 0 11.4168V14.1706C0 14.7611 0.442832 15.2593 1.03328 15.3285L2.82301 15.5361ZM12.8006 8.08635C15.31 8.08635 17.3534 10.1298 17.3534 12.6392C17.3534 15.1486 15.31 17.1921 12.8006 17.1921C10.2912 17.1921 8.2477 15.1486 8.2477 12.6392C8.2477 10.1298 10.2912 8.08635 12.8006 8.08635Z" fill="white"/>
<path d="M40.0257 16.2142L38.5727 14.9872C38.1253 14.609 37.4656 14.6274 37.0413 15.0287L36.2386 15.7806C35.5606 15.4531 34.841 15.2225 34.0983 15.0887L33.8723 13.9816C33.757 13.4096 33.2265 13.0129 32.6452 13.0591L30.7493 13.2205C30.1681 13.2713 29.7115 13.7464 29.693 14.3322L29.6562 15.4577C28.9273 15.7207 28.24 16.0805 27.6126 16.5325L26.6532 15.896C26.1641 15.5731 25.5138 15.6653 25.1356 16.1128L23.9086 17.575C23.5303 18.0225 23.5487 18.6821 23.95 19.1065L24.7896 20.0013C24.4989 20.6564 24.2913 21.3437 24.1714 22.0494L22.9721 22.2939C22.4001 22.4092 22.0034 22.9397 22.0495 23.521L22.211 25.4169C22.2617 25.9981 22.7369 26.4547 23.3227 26.4732L24.6189 26.5147C24.8542 27.1328 25.1633 27.7187 25.5368 28.2675L24.8127 29.3608C24.4898 29.8497 24.582 30.5002 25.0294 30.8784L26.4825 32.1054C26.93 32.4837 27.5896 32.4652 28.014 32.0639L28.9642 31.1736C29.587 31.4642 30.2419 31.681 30.9154 31.8102L31.1784 33.111C31.2937 33.683 31.8242 34.0797 32.4054 34.0336L34.3013 33.8721C34.8825 33.8214 35.3392 33.3463 35.3576 32.7604L35.3991 31.4873C36.0911 31.2428 36.746 30.9106 37.3503 30.5002L38.3975 31.1921C38.8864 31.515 39.5368 31.4227 39.9151 30.9753L41.1421 29.5222C41.5203 29.0748 41.5019 28.4151 41.1006 27.9908L40.2564 27.0959C40.5655 26.4409 40.7916 25.749 40.9207 25.0386L42.0739 24.8033C42.6459 24.688 43.0426 24.1575 42.9964 23.5762L42.835 21.6804C42.7842 21.0991 42.3091 20.6425 41.7233 20.624L40.5655 20.5871C40.3256 19.9136 40.0027 19.2771 39.6014 18.6866L40.2333 17.7364C40.5655 17.2475 40.4732 16.5925 40.0257 16.2142ZM32.8805 27.1743C30.8324 27.3496 29.0241 25.8227 28.8535 23.7747C28.6781 21.7266 30.2051 19.9183 32.2531 19.7476C34.3012 19.5723 36.1095 21.0992 36.2801 23.1473C36.4555 25.1954 34.9285 27.0037 32.8805 27.1743Z" fill="white"/>
<path d="M9.45644 32.276C8.87522 32.336 8.42778 32.8249 8.42316 33.4108L8.40932 34.5778C8.4001 35.1637 8.83371 35.6618 9.41492 35.7357L10.2729 35.8464C10.4159 36.3677 10.6189 36.8658 10.8818 37.3364L10.3283 38.0191C9.95924 38.4757 9.98691 39.1307 10.3975 39.5505L11.2139 40.3854C11.6245 40.8052 12.2795 40.8513 12.7454 40.4915L13.4327 39.9611C13.917 40.2471 14.4291 40.4731 14.9641 40.6299L15.0564 41.5156C15.1163 42.0968 15.6053 42.5442 16.1911 42.5489L17.3582 42.5627C17.944 42.5719 18.4422 42.1383 18.516 41.5571L18.6221 40.7176C19.2034 40.5745 19.7569 40.3578 20.2828 40.0718L20.9286 40.593C21.3852 40.962 22.0403 40.9344 22.4601 40.5238L23.295 39.7074C23.7148 39.2969 23.7609 38.6418 23.4011 38.1759L22.9075 37.5347C23.2119 37.0272 23.4472 36.4875 23.6087 35.9202L24.3744 35.8417C24.9556 35.7818 25.403 35.2928 25.4077 34.707L25.4215 33.5399C25.4307 32.9541 24.9971 32.4559 24.4159 32.3821L23.6686 32.2852C23.5256 31.7224 23.3134 31.1781 23.0367 30.6707L23.5026 30.0987C23.8716 29.642 23.8439 28.987 23.4334 28.5673L22.617 27.7323C22.2064 27.3125 21.5513 27.2664 21.0854 27.6262L20.5272 28.0552C20.0014 27.7369 19.4386 27.4925 18.8482 27.3264L18.7744 26.6022C18.7144 26.0209 18.2255 25.5735 17.6396 25.5689L16.4726 25.5551C15.8867 25.5459 15.3885 25.9795 15.3147 26.5607L15.2224 27.2803C14.6136 27.4371 14.0278 27.677 13.4834 27.9907L12.9068 27.5201C12.4502 27.1511 11.7951 27.1788 11.3753 27.5893L10.5358 28.4105C10.116 28.821 10.0699 29.476 10.4297 29.9419L10.9233 30.5785C10.6373 31.0859 10.4112 31.6256 10.2636 32.193L9.45644 32.276ZM16.9892 30.9567C18.6637 30.9752 20.0059 32.3544 19.9875 34.0289C19.9691 35.7034 18.5898 37.0457 16.9153 37.0272C15.2409 37.0088 13.8986 35.6296 13.917 33.955C13.9355 32.2806 15.3147 30.9383 16.9892 30.9567Z" fill="white"/>
</svg>
