<svg width="34" height="33" viewBox="0 0 34 33" fill="none" xmlns="http://www.w3.org/2000/svg">
<path d="M31.9888 23.7115H1.97987C1.46459 23.7115 1.04688 24.1173 1.04688 24.6171C1.04688 25.1175 1.46459 25.5227 1.97987 25.5227H31.9888C32.5041 25.5227 32.9218 25.1175 32.9218 24.6171C32.9218 24.1173 32.5041 23.7115 31.9888 23.7115Z" fill="white"/>
<path d="M31.9888 15.1989H1.97987C1.46459 15.1989 1.04688 15.6049 1.04688 16.1048C1.04688 16.6049 1.46459 17.0103 1.97987 17.0103H31.9888C32.5041 17.0103 32.9218 16.6049 32.9218 16.1048C32.9218 15.6049 32.5041 15.1989 31.9888 15.1989Z" fill="white"/>
<path d="M31.9888 6.68661H1.97987C1.46459 6.68661 1.04688 7.09233 1.04688 7.59217C1.04688 8.09229 1.46459 8.49772 1.97987 8.49772H31.9888C32.5041 8.49772 32.9218 8.09229 32.9218 7.59217C32.9218 7.09233 32.5041 6.68661 31.9888 6.68661Z" fill="white"/>
</svg>
