<svg width="26" height="26" viewBox="0 0 26 26" fill="none" xmlns="http://www.w3.org/2000/svg">
<g clip-path="url(#clip0_309_1279)">
<path d="M26.0688 24.4015L18.0317 16.3639C18.0119 16.3887 17.9887 16.4102 17.9683 16.4345C17.7497 16.7017 17.5212 16.9622 17.2763 17.207C17.0302 17.451 16.7721 17.6823 16.5027 17.9001C16.4784 17.9199 16.4569 17.9431 16.4326 17.9627L24.4702 26L26.0688 24.4015Z" fill="white"/>
<path d="M16.4764 2.81767C12.8727 -0.789607 7.07871 -0.953825 3.2763 2.44342C-0.526111 5.84094 -1.01269 11.6167 2.16762 15.6024C5.34793 19.5881 11.0876 20.3956 15.2444 17.4422C15.4624 17.2887 15.6744 17.1259 15.8803 16.9534C16.0859 16.7806 16.2835 16.5996 16.4731 16.4094C16.8518 16.0305 17.1973 15.6195 17.5053 15.1812C20.244 11.3664 19.808 6.1277 16.4764 2.81767Z" fill="white"/>
</g>
<defs>
<clipPath id="clip0_309_1279">
<rect width="26" height="26" fill="white"/>
</clipPath>
</defs>
</svg>
