<svg width="17" height="24" viewBox="0 0 17 24" fill="none" xmlns="http://www.w3.org/2000/svg">
<path fill-rule="evenodd" clip-rule="evenodd" d="M1.30769 0H5.23077C5.95 0 6.53846 0.599998 6.53846 1.33333V22.6667C6.53846 23.4 5.95 24 5.23077 24H1.30769C0.588462 24 0 23.4 0 22.6667V1.33333C0 0.599998 0.588462 0 1.30769 0ZM11.7692 0H15.6923C16.4115 0 17 0.599998 17 1.33333V22.6667C17 23.4 16.4115 24 15.6923 24H11.7692C11.05 24 10.4615 23.4 10.4615 22.6667V1.33333C10.4615 0.599998 11.05 0 11.7692 0Z" fill="#D3D3D3"/>
</svg>
