<svg width="14" height="19" viewBox="0 0 14 19" fill="none" xmlns="http://www.w3.org/2000/svg">
<path fill-rule="evenodd" clip-rule="evenodd" d="M1.07692 0H4.30769C4.9 0 5.38462 0.474999 5.38462 1.05555V17.9444C5.38462 18.525 4.9 19 4.30769 19H1.07692C0.484615 19 0 18.525 0 17.9444V1.05555C0 0.474999 0.484615 0 1.07692 0ZM9.69231 0H12.9231C13.5154 0 14 0.474999 14 1.05555V17.9444C14 18.525 13.5154 19 12.9231 19H9.69231C9.1 19 8.61539 18.525 8.61539 17.9444V1.05555C8.61539 0.474999 9.1 0 9.69231 0Z" fill="#D3D3D3"/>
</svg>
