<svg width="33" height="16" viewBox="0 0 33 16" fill="none" xmlns="http://www.w3.org/2000/svg">
<g clip-path="url(#clip0_309_1250)">
<path d="M8.25003 16H10.3125V3.40518C9.53902 3.61719 8.84191 4.00222 8.25003 4.5082V16ZM4.12501 7.47947V15.9859L4.258 15.9999H6.18746V7.4664H4.258L4.12501 7.47947ZM0 11.7317C0 13.2808 0.831233 14.6239 2.06245 15.373V8.09453C0.831233 8.84251 0 10.1857 0 11.7317ZM12.375 16H14.4375V3.96026C13.8208 3.58721 13.1227 3.34125 12.375 3.24623V16ZM28.742 7.4665H27.5818C27.6406 7.11849 27.6778 6.76543 27.6778 6.4004C27.6778 2.86515 24.8181 0 21.2902 0C19.3763 0 17.6706 0.854097 16.5001 2.19209V15.9999H28.742C31.0922 15.9999 33 14.0898 33 11.7316C33 9.37562 31.0922 7.4665 28.742 7.4665Z" fill="white"/>
</g>
<defs>
<clipPath id="clip0_309_1250">
<rect width="33" height="16" fill="white"/>
</clipPath>
</defs>
</svg>
