<svg width="24" height="24" viewBox="0 0 24 24" fill="none" xmlns="http://www.w3.org/2000/svg">
<path fill-rule="evenodd" clip-rule="evenodd" d="M19.73 9L21 10.27L18.77 12.5L21 14.73L19.73 16L17.5 13.77L15.27 16L14 14.73L16.23 12.5L14 10.27L15.27 9L17.5 11.23L19.73 9Z" fill="white"/>
<path d="M11.38 3.08C11.1969 3.00467 10.9956 2.98536 10.8016 3.02453C10.6076 3.06369 10.4295 3.15956 10.29 3.3L6 8H3C2.73478 8 2.48043 8.10536 2.29289 8.2929C2.10536 8.48043 2 8.73479 2 9V15C2 15.2652 2.10536 15.5196 2.29289 15.7071C2.48043 15.8946 2.73478 16 3 16H6L10.29 20.71C10.4299 20.851 10.6086 20.9472 10.8033 20.9863C10.9981 21.0254 11.2 21.0055 11.3835 20.9294C11.5669 20.8532 11.7235 20.7241 11.8333 20.5586C11.9431 20.3931 12.0012 20.1986 12 20V4C11.999 3.80258 11.9396 3.60986 11.8293 3.44614C11.7189 3.28242 11.5626 3.15502 11.38 3.08Z" fill="white"/>
</svg>
