<svg width="33" height="24" viewBox="0 0 33 24" fill="none" xmlns="http://www.w3.org/2000/svg">
<g clip-path="url(#clip0_309_1253)">
<path fill-rule="evenodd" clip-rule="evenodd" d="M13.0928 16.4258L13.0917 6.83841L22.0079 11.6487L13.0928 16.4258ZM32.67 5.17706C32.67 5.17706 32.3472 2.8258 31.3582 1.79038C30.1032 0.430807 28.6966 0.424396 28.0521 0.345488C23.4341 -5.00679e-06 16.5072 0 16.5072 0H16.4928C16.4928 0 9.56588 -5.00679e-06 4.94794 0.345488C4.30238 0.424396 2.89678 0.430807 1.64072 1.79038C0.651753 2.8258 0.329997 5.17706 0.329997 5.17706C0.329997 5.17706 0 7.93887 0 10.6996V13.2887C0 16.0505 0.329997 18.8112 0.329997 18.8112C0.329997 18.8112 0.651753 21.1625 1.64072 22.1979C2.89678 23.5575 4.54574 23.5148 5.27999 23.6566C7.91999 23.919 16.5 24 16.5 24C16.5 24 23.4341 23.9893 28.0521 23.6439C28.6966 23.5639 30.1032 23.5575 31.3582 22.1979C32.3472 21.1625 32.67 18.8112 32.67 18.8112C32.67 18.8112 33 16.0505 33 13.2887V10.6996C33 7.93887 32.67 5.17706 32.67 5.17706Z" fill="white"/>
</g>
<defs>
<clipPath id="clip0_309_1253">
<rect width="33" height="24" fill="white"/>
</clipPath>
</defs>
</svg>
